<?xml version="1.0" encoding="UTF-8" standalone="no"?>
<svg
   xmlns="http://www.w3.org/2000/svg"
   version="1.1"
   viewBox="2.521 9.591 391.141 370.141">
<path
     d="M 307.535,369.206 C 302.862,365.843 295.889,361.06 292.039,358.577 C 288.188,356.095 271.089,343.628 254.039,330.874 C 209.17,297.311 199.238,290.321 196.407,290.321 C 193.436,290.321 189.718,292.733 172.344,305.925 C 159.698,315.527 123.425,340.937 98.538,357.628 C 92.213,361.87 84.446,367.208 81.279,369.489 C 78.111,371.77 75.252,373.37 74.925,373.042 C 74.598,372.716 76.83,364.882 79.886,355.634 C 82.942,346.388 87.921,330.497 90.952,320.321 C 93.983,310.147 101.205,287.655 107.001,270.34 C 112.796,253.025 117.538,238.342 117.538,237.713 C 117.538,237.083 112.475,232.742 106.288,228.066 C 100.101,223.39 87.641,213.848 78.6,206.862 C 69.559,199.876 57.86,191.195 52.6,187.571 C 17.449,163.355 5.295,154.221 6.787,153.141 C 6.924,153.041 38.488,152.704 76.929,152.391 C 137.607,151.897 146.933,151.624 147.672,150.322 C 149.315,147.428 170.639,85.978 175.55,69.984 C 183.914,42.748 195.74,9.223 196.853,9.594 C 198.027,9.986 205.172,31.006 228.204,101.822 C 236.791,128.222 244.326,150.379 244.95,151.06 C 245.832,152.022 262.566,152.306 319.986,152.335 C 360.632,152.355 393.471,152.742 392.963,153.194 C 392.455,153.646 382.813,160.24 371.538,167.847 C 360.263,175.454 345.187,185.624 338.038,190.448 C 307.817,210.835 272.14,235.944 271.174,237.505 C 270.381,238.788 271.346,242.708 275.237,254.005 C 281.362,271.784 306.825,343.843 313.084,361.109 C 317.667,373.755 318.075,375.322 316.784,375.322 C 316.371,375.321 312.208,372.569 307.535,369.206 z M 153.199,248.244 C 167.862,241.146 173.781,215.598 165.114,196.822 C 163.844,194.072 160.496,188.682 157.672,184.843 C 154.849,181.005 152.539,177.292 152.539,176.593 C 152.539,174.671 160.343,175.05 165.08,177.201 C 170.647,179.73 174.269,184.343 175.115,189.983 C 176.114,196.645 174.776,214.277 172.493,224.525 C 169.749,236.847 169.902,239.838 173.462,243.398 C 176.838,246.774 181.695,247.3 185.416,244.694 C 187.437,243.278 188.256,243.237 191.718,244.38 C 195.385,245.59 196.04,245.505 200.091,243.293 C 204.124,241.09 204.859,240.992 209.027,242.107 C 215.509,243.841 216.992,243.653 220.564,240.647 C 223.355,238.299 224.642,237.963 231.114,237.897 C 239.567,237.811 241.557,236.539 243.758,229.821 L 245.068,225.821 L 250.628,226.155 C 255.48,226.446 256.599,226.143 259.408,223.779 C 265.495,218.657 269.889,205.993 267.545,200.332 C 265.035,194.273 261.478,196.432 259.653,205.122 C 259.041,208.037 257.84,211.776 256.984,213.431 C 255.68,215.952 254.917,216.39 252.273,216.131 C 249.486,215.858 249.017,215.356 248.251,211.821 C 247.733,209.439 247.819,201.957 248.462,193.321 C 250.291,168.752 247.786,161.758 238.113,164.429 C 232.505,165.977 216.794,176.981 213.858,181.417 C 209.301,188.303 211.862,196.199 223.07,209.821 C 229.758,217.949 233.541,224.053 233.541,226.714 C 233.541,228.668 230.406,229.574 226.309,228.805 C 223.576,228.292 222.309,228.724 219.128,231.252 C 214.687,234.781 212.908,235.005 208.618,232.571 C 205.621,230.871 205.42,230.886 201.541,233.099 C 197.81,235.227 197.354,235.276 194.583,233.843 C 191.832,232.421 191.298,232.465 187.186,234.463 C 178.806,238.534 178.347,236.979 181.541,215.321 C 184.249,196.954 184.159,189.191 181.162,182.756 C 178.151,176.29 173.268,170.734 168.425,168.263 C 163.638,165.82 154.675,165.69 149.823,167.992 C 146.317,169.656 142.557,174.471 142.537,177.322 C 142.531,178.147 145.892,183.772 150.007,189.822 C 159.278,203.456 161.332,209.955 159.57,220.074 C 157.205,233.654 149.757,242.876 143.176,240.374 C 139.822,239.098 139.195,237.114 138.582,225.822 C 138.042,215.869 138.027,215.821 135.353,215.512 C 131.096,215.02 129.278,218.783 129.268,228.098 C 129.258,237.369 131.289,243.016 136.178,247.309 C 140.431,251.044 146.703,251.388 153.199,248.244 z M 231.649,205.879 C 223.859,196.076 220.307,189.982 220.715,187.118 C 220.945,185.5 223.477,183.318 229.481,179.563 C 234.124,176.659 238.399,174.442 238.981,174.637 C 240.233,175.056 239.807,211.324 238.534,212.677 C 238.091,213.146 234.993,210.087 231.649,205.879 z M 260.967,243.75 C 261.832,242.886 262.539,241.793 262.539,241.321 C 262.539,240.21 259.649,237.321 258.539,237.321 C 258.067,237.321 256.975,238.029 256.11,238.893 C 255.245,239.757 254.539,240.85 254.539,241.321 C 254.539,241.793 255.246,242.885 256.11,243.75 C 256.974,244.615 258.067,245.321 258.539,245.321 C 259.01,245.321 260.103,244.614 260.967,243.75 z M 252.967,236.75 C 253.832,235.886 254.539,234.793 254.539,234.321 C 254.539,233.85 253.832,232.757 252.967,231.893 C 252.103,231.029 251.01,230.321 250.539,230.321 C 250.067,230.321 248.975,231.029 248.11,231.893 C 247.245,232.757 246.539,233.85 246.539,234.321 C 246.539,234.793 247.246,235.885 248.11,236.75 C 248.974,237.615 250.067,238.321 250.539,238.321 C 251.01,238.321 252.103,237.614 252.967,236.75 z M 262.967,233.75 C 263.832,232.886 264.539,231.793 264.539,231.321 C 264.539,230.21 261.649,227.321 260.539,227.321 C 259.428,227.321 256.539,230.21 256.539,231.321 C 256.539,232.432 259.428,235.321 260.539,235.321 C 261.01,235.321 262.103,234.614 262.967,233.75 z M 190.967,221.75 C 191.832,220.886 192.539,219.793 192.539,219.321 C 192.539,218.85 191.832,217.757 190.967,216.893 C 190.103,216.029 189.01,215.321 188.539,215.321 C 187.254,215.321 184.539,218.289 184.539,219.693 C 184.539,220.369 185.079,221.462 185.738,222.122 C 187.368,223.751 189.088,223.629 190.967,221.75 z M 200.967,221.75 C 201.832,220.886 202.539,219.793 202.539,219.321 C 202.539,218.85 201.832,217.757 200.967,216.893 C 200.103,216.029 199.01,215.321 198.539,215.321 C 198.067,215.321 196.975,216.029 196.11,216.893 C 195.245,217.757 194.539,218.85 194.539,219.321 C 194.539,219.793 195.246,220.885 196.11,221.75 C 196.974,222.615 198.067,223.321 198.539,223.321 C 199.01,223.321 200.103,222.614 200.967,221.75 z M 144.967,210.75 C 145.832,209.886 146.539,208.793 146.539,208.321 C 146.539,207.85 145.832,206.757 144.967,205.893 C 144.103,205.029 143.01,204.321 142.539,204.321 C 142.067,204.321 140.975,205.029 140.11,205.893 C 139.245,206.757 138.539,207.85 138.539,208.321 C 138.539,208.793 139.246,209.885 140.11,210.75 C 140.974,211.615 142.067,212.321 142.539,212.321 C 143.01,212.321 144.103,211.614 144.967,210.75 z"
     fill="#20673D" />
</svg>